<svg width="110" height="105" viewBox="0 0 110 105" fill="none"
  xmlns="http://www.w3.org/2000/svg">
  <g clip-path="url(#clip0)">
    <circle r="52.5" transform="matrix(-1 0 0 1 55.9365 52.5)" fill="#FEF7F0"/>
    <rect width="9" height="23" transform="matrix(-1 0 0 1 10 26)" fill="white"/>
    <path d="M-0.00793563 27.884L-0.00793477 47.5359C-0.00609478 47.9236 0.0725683 48.3071 0.223474 48.6641C0.374379 49.021 0.59451 49.3442 0.871049 49.6149C1.14759 49.8856 1.47501 50.0984 1.83424 50.2408C2.19347 50.3832 2.57734 50.4525 2.96348 50.4445L8.23997 50.4445C9.82597 50.4445 11.1221 49.3258 11.2034 47.6477L15.7844 47.6477C16.0137 48.9011 16.6722 50.0344 17.6461 50.8516C18.6199 51.6688 19.8478 52.1184 21.117 52.1226L26.5491 52.1226L26.5491 49.8852L21.117 49.8852C20.2573 49.87 19.438 49.5162 18.8359 48.9C18.2337 48.2839 17.897 47.4547 17.8984 46.5915C17.9004 46.2883 17.7856 45.9961 17.5779 45.7759C17.3702 45.5558 17.0858 45.4248 16.7841 45.4103L11.1349 45.4103L11.1349 30.6807L34.5099 30.6807C35.3384 30.6873 36.1325 31.014 36.7273 31.5931L45.3418 42.0477L47.0584 40.6264L38.4041 30.1386C38.3798 30.1091 38.354 30.0591 38.3267 30.0325C37.3123 29.0191 35.9409 28.4481 34.5099 28.4433L11.1349 28.4433L11.1349 27.884C11.143 27.4965 11.0742 27.1112 10.9325 26.7506C10.7908 26.39 10.5791 26.0613 10.3097 25.7837C10.0403 25.5061 9.71855 25.285 9.36321 25.1334C9.00787 24.9819 8.62605 24.9028 8.23997 24.9008L2.96348 24.9008C2.1757 24.9017 1.42045 25.2163 0.863403 25.7756C0.306357 26.3348 -0.00700183 27.0931 -0.00793563 27.884ZM8.16346 27.1382C8.36047 27.1382 8.54942 27.2168 8.68873 27.3566C8.82805 27.4965 8.90631 27.6862 8.90631 27.884L8.90631 47.4613C8.90631 47.6591 8.82805 47.8488 8.68874 47.9887C8.54942 48.1285 8.36048 48.2071 8.16346 48.2071L2.96348 48.2071C2.76646 48.2071 2.57752 48.1285 2.4382 47.9887C2.29889 47.8488 2.22063 47.6591 2.22063 47.4613L2.22063 27.884C2.22063 27.6862 2.29889 27.4965 2.4382 27.3566C2.57752 27.2168 2.76646 27.1382 2.96348 27.1382L8.16346 27.1382Z" fill="#399AF4"/>
    <rect x="-1" y="1" width="47" height="22" rx="1" transform="matrix(-1 0 0 1 80.4365 47)" stroke="#F58220" stroke-width="2"/>
    <rect width="18" height="2" transform="matrix(-1 0 0 1 58.4365 54)" fill="#F58220"/>
    <rect width="18" height="2" transform="matrix(-1 0 0 1 58.4365 59)" fill="#F58220"/>
    <rect width="18" height="2" transform="matrix(-1 0 0 1 58.4365 63)" fill="#F58220"/>
    <rect width="13" height="2" transform="matrix(-1 0 0 1 77.4365 63)" fill="#F58220"/>
    <rect width="6" height="2" transform="matrix(-1 0 0 1 77.4365 59)" fill="#F58220"/>
    <path fill-rule="evenodd" clip-rule="evenodd" d="M70.4978 42.281C70.418 42.25 70.333 42.2352 70.2475 42.2374L33.436 42.2374V40L70.2475 40C70.6255 39.9981 71.0003 40.071 71.3502 40.2146C71.7002 40.3582 72.0185 40.5697 72.287 40.8369C72.5555 41.1041 72.7689 41.4218 72.915 41.7719C73.0611 42.122 73.1369 42.4976 73.1383 42.8772V45H70.9097V42.8772C70.9087 42.7913 70.8907 42.7065 70.8567 42.6278C70.8227 42.549 70.7735 42.4778 70.7119 42.4182C70.6503 42.3587 70.5775 42.3121 70.4978 42.281ZM30.4365 61.3341V63.5715H29.0027C27.4113 63.5715 26.0242 62.2716 26.0242 60.6739V40.6103L28.252 40.6103V60.6739C28.252 61.0378 28.6394 61.3341 29.002 61.3341H30.4365Z" fill="#F58220"/>
    <path d="M30.7437 45.9466C31.1238 46.3282 31.575 46.6309 32.0716 46.8374C32.5682 47.044 33.1004 47.1503 33.638 47.1503C34.1755 47.1503 34.7077 47.044 35.2043 46.8374C35.7009 46.6309 36.1521 46.3282 36.5322 45.9466L37.2344 45.2418C37.4277 45.0478 37.5432 44.7893 37.559 44.5154C37.5748 44.2415 37.4898 43.9713 37.3202 43.7562L29.7672 34.1795C29.6766 34.0637 29.5641 33.9671 29.4362 33.895C29.3082 33.823 29.1674 33.777 29.0217 33.7597C28.8761 33.7425 28.7285 33.7543 28.5873 33.7944C28.4462 33.8345 28.3144 33.9023 28.1994 33.9937C28.0844 34.0851 27.9885 34.1984 27.9172 34.3271C27.846 34.4558 27.8007 34.5973 27.784 34.7436C27.7674 34.8899 27.7796 35.0381 27.8201 35.1796C27.8606 35.3212 27.9286 35.4533 28.02 35.5684L34.957 44.364C34.6073 44.7151 34.133 44.9123 33.6384 44.9123C33.1439 44.9123 32.6696 44.7151 32.3199 44.364L28.1071 40.1344C27.9137 39.9403 27.6559 39.8244 27.3828 39.8086L26.4641 39.7553C26.4428 39.754 26.4212 39.7535 26.3999 39.7535C25.6507 39.7576 24.9117 39.9287 24.2363 40.2543C23.5755 40.5694 22.8451 40.709 22.1151 40.6597C21.3852 40.6104 20.68 40.3738 20.0672 39.9725C19.8814 39.8595 19.6662 39.8048 19.4492 39.8157L17.4639 39.8157C17.1684 39.8157 16.8849 39.9336 16.676 40.1434C16.467 40.3532 16.3496 40.6377 16.3496 40.9344C16.3496 41.2311 16.467 41.5157 16.676 41.7255C16.8849 41.9353 17.1684 42.0531 17.4639 42.0531L19.1299 42.0531C20.962 42.9854 23.2498 43.2227 25.1842 42.3104C25.5537 42.1254 25.9584 42.0218 26.3711 42.0065L26.8311 42.0252L30.7437 45.9466Z" fill="#399AF4"/>
  </g>
  <defs>
    <clipPath id="clip0">
      <rect width="110" height="105" fill="white"/>
    </clipPath>
  </defs>
</svg>
