<svg width="110" height="105" viewBox="0 0 110 105" fill="none"
  xmlns="http://www.w3.org/2000/svg">
  <g clip-path="url(#clip0)">
    <circle cx="57.6355" cy="52.5" r="52.5" fill="#FEF7F0"/>
    <rect y="26" width="9" height="23" fill="white"/>
  </g>
  <rect x="45.1355" y="75.5671" width="8.56716" height="2.44777" transform="rotate(-90 45.1355 75.5671)" fill="#399AF4"/>
  <path d="M52.1355 71.5671L52.1355 66L54.5833 66L54.5833 71.5671L52.1355 71.5671Z" fill="#399AF4"/>
  <path d="M68.1355 71L68.1355 66L70.1355 66L70.1355 71L68.1355 71Z" fill="#399AF4"/>
  <path d="M0.999999 27.884L1 47.5359C1.00185 47.9236 1.08082 48.3071 1.23233 48.6641C1.38383 49.021 1.60484 49.3442 1.88247 49.6149C2.16011 49.8856 2.48883 50.0984 2.84948 50.2408C3.21014 50.3832 3.59553 50.4525 3.98321 50.4445L9.28064 50.4445C10.8729 50.4445 12.1742 49.3258 12.2558 47.6477L16.855 47.6477C17.0852 48.901 17.7464 50.0344 18.7241 50.8516C19.7018 51.6688 20.9345 52.1184 22.2088 52.1226L27.6624 52.1226L27.6624 49.8852L22.2088 49.8852C21.3457 49.87 20.5231 49.5162 19.9186 48.9C19.3141 48.2839 18.976 47.4547 18.9774 46.5915C18.9794 46.2883 18.8641 45.9961 18.6556 45.7759C18.4471 45.5558 18.1615 45.4248 17.8587 45.4103L12.187 45.4103L12.187 30.6807L35.6548 30.6807C36.4866 30.6873 37.2839 31.014 37.881 31.593L46.5297 42.0477L48.2531 40.6264L39.5645 30.1385C39.5401 30.1091 39.5142 30.0591 39.4868 30.0325C38.4683 29.0191 37.0915 28.4481 35.6548 28.4433L12.187 28.4433L12.187 27.884C12.1952 27.4965 12.1261 27.1112 11.9839 26.7506C11.8416 26.39 11.6291 26.0613 11.3586 25.7837C11.0881 25.5061 10.7651 25.285 10.4083 25.1334C10.0516 24.9819 9.66825 24.9028 9.28064 24.9008L3.98321 24.9008C3.1923 24.9017 2.43405 25.2163 1.8748 25.7756C1.31554 26.3348 1.00094 27.0931 0.999999 27.884ZM9.20382 27.1382C9.40162 27.1382 9.59132 27.2168 9.73118 27.3566C9.87105 27.4965 9.94963 27.6862 9.94963 27.884L9.94963 47.4613C9.94963 47.6591 9.87105 47.8488 9.73119 47.9887C9.59132 48.1285 9.40162 48.2071 9.20382 48.2071L3.98321 48.2071C3.78541 48.2071 3.59571 48.1285 3.45585 47.9887C3.31598 47.8488 3.23741 47.6591 3.23741 47.4613L3.23741 27.884C3.23741 27.6862 3.31598 27.4965 3.45585 27.3566C3.59571 27.2168 3.78541 27.1382 3.98321 27.1382L9.20382 27.1382Z" fill="#399AF4"/>
  <path d="M71.5343 42.2375C71.6201 42.2352 71.7055 42.25 71.7855 42.2811C71.8656 42.3121 71.9387 42.3587 72.0005 42.4183C72.0624 42.4778 72.1118 42.549 72.1459 42.6278C72.18 42.7066 72.1981 42.7913 72.1992 42.8772L72.1992 60.6739C72.1979 60.8494 72.1273 61.0173 72.0027 61.141C71.8782 61.2647 71.7098 61.3341 71.5343 61.3341L30.125 61.3341C29.7611 61.3341 29.3722 61.0379 29.3722 60.6739L29.3722 40.6104L27.1355 40.6104L27.1355 60.6739C27.1355 62.2716 28.5281 63.5715 30.1258 63.5715L71.535 63.5715C72.3036 63.5706 73.0405 63.2651 73.5843 62.722C74.1281 62.1789 74.4346 61.4425 74.4366 60.6739L74.4366 42.8772C74.4352 42.4976 74.359 42.122 74.2124 41.772C74.0657 41.4219 73.8515 41.1041 73.5819 40.8369C73.3124 40.5697 72.9928 40.3582 72.6414 40.2146C72.2901 40.071 71.9138 39.9981 71.5343 40.0001L34.5767 40.0001L34.5767 42.2375L71.5343 42.2375Z" fill="#F58220"/>
  <rect x="51.1355" y="46" width="18" height="2" fill="#F58220"/>
  <rect x="51.1355" y="51" width="18" height="2" fill="#F58220"/>
  <rect x="51.1355" y="55" width="18" height="2" fill="#F58220"/>
  <rect x="32.1355" y="55" width="13" height="2" fill="#F58220"/>
  <rect x="32.1355" y="51" width="6" height="2" fill="#F58220"/>
  <path d="M31.8737 45.9466C32.2553 46.3282 32.7083 46.6309 33.2069 46.8374C33.7054 47.044 34.2398 47.1503 34.7794 47.1503C35.3191 47.1503 35.8535 47.044 36.352 46.8374C36.8506 46.6309 37.3036 46.3282 37.6852 45.9466L38.3902 45.2418C38.5842 45.0478 38.7002 44.7893 38.7161 44.5154C38.732 44.2415 38.6466 43.9713 38.4763 43.7562L30.8933 34.1795C30.8024 34.0637 30.6894 33.967 30.561 33.895C30.4325 33.823 30.2912 33.777 30.1449 33.7597C29.9987 33.7425 29.8505 33.7543 29.7088 33.7944C29.5671 33.8345 29.4347 33.9023 29.3193 33.9937C29.2039 34.0851 29.1076 34.1984 29.036 34.3271C28.9645 34.4558 28.919 34.5973 28.9023 34.7436C28.8855 34.8899 28.8979 35.0381 28.9385 35.1796C28.9792 35.3212 29.0474 35.4533 29.1392 35.5684L36.1037 44.364C35.7526 44.7151 35.2764 44.9123 34.7799 44.9123C34.2834 44.9123 33.8072 44.7151 33.4561 44.364L29.2267 40.1344C29.0324 39.9403 28.7736 39.8244 28.4995 39.8086L27.5771 39.7553C27.5557 39.754 27.5341 39.7535 27.5126 39.7535C26.7604 39.7576 26.0185 39.9287 25.3405 40.2543C24.677 40.5694 23.9438 40.709 23.2109 40.6597C22.478 40.6104 21.7701 40.3738 21.1549 39.9725C20.9683 39.8595 20.7522 39.8048 20.5343 39.8157L18.5412 39.8157C18.2445 39.8157 17.9599 39.9336 17.7501 40.1434C17.5403 40.3532 17.4225 40.6377 17.4225 40.9344C17.4225 41.2311 17.5403 41.5157 17.7501 41.7255C17.9599 41.9353 18.2445 42.0531 18.5412 42.0531L20.2138 42.0531C22.0532 42.9854 24.3501 43.2227 26.2921 42.3104C26.6631 42.1254 27.0694 42.0218 27.4837 42.0065L27.9456 42.0252L31.8737 45.9466Z" fill="#399AF4"/>
  <defs>
    <clipPath id="clip0">
      <rect width="110" height="105" fill="white"/>
    </clipPath>
  </defs>
</svg>
