<svg width="110" height="105" viewBox="0 0 110 105" fill="none"
  xmlns="http://www.w3.org/2000/svg">
  <g clip-path="url(#clip0)">
    <circle r="52.5" transform="matrix(-1 0 0 1 57.5 52.5)" fill="#FEF7F0"/>
    <rect width="9" height="23" transform="matrix(-1 0 0 1 12 26)" fill="white"/>
    <path d="M2 27.9832L2 47.6351C2.00185 48.0228 2.08082 48.4063 2.23233 48.7633C2.38383 49.1202 2.60484 49.4434 2.88247 49.7141C3.16011 49.9848 3.48883 50.1976 3.84948 50.34C4.21014 50.4824 4.59553 50.5517 4.98321 50.5437L10.2806 50.5437C11.8729 50.5437 13.1742 49.425 13.2558 47.7469L17.855 47.7469C18.0852 49.0002 18.7464 50.1336 19.7241 50.9508C20.7018 51.768 21.9345 52.2176 23.2088 52.2217L28.6624 52.2217L28.6624 49.9843L23.2088 49.9843C22.3457 49.9692 21.5231 49.6154 20.9186 48.9992C20.3141 48.383 19.976 47.5539 19.9774 46.6907C19.9794 46.3875 19.8641 46.0952 19.6556 45.8751C19.4471 45.6549 19.1615 45.524 18.8587 45.5095L13.187 45.5095L13.187 30.7799L36.6548 30.7799C37.4866 30.7865 38.2839 31.1132 38.881 31.6922L47.5297 42.1469L49.2531 40.7256L40.5645 30.2377C40.5401 30.2083 40.5142 30.1583 40.4868 30.1316C39.4683 29.1183 38.0915 28.5473 36.6548 28.5425L13.187 28.5425L13.187 27.9832C13.1952 27.5956 13.1261 27.2104 12.9839 26.8498C12.8416 26.4892 12.6291 26.1605 12.3586 25.8829C12.0881 25.6053 11.7651 25.3842 11.4083 25.2326C11.0516 25.081 10.6683 25.002 10.2806 25L4.98321 25C4.1923 25.0009 3.43405 25.3155 2.8748 25.8748C2.31554 26.434 2.00094 27.1923 2 27.9832ZM10.2038 27.2374C10.4016 27.2374 10.5913 27.3159 10.7312 27.4558C10.871 27.5957 10.9496 27.7854 10.9496 27.9832L10.9496 47.5605C10.9496 47.7583 10.8711 47.948 10.7312 48.0878C10.5913 48.2277 10.4016 48.3063 10.2038 48.3063L4.98321 48.3063C4.78541 48.3063 4.59571 48.2277 4.45585 48.0878C4.31598 47.948 4.23741 47.7583 4.23741 47.5605L4.23741 27.9832C4.23741 27.7854 4.31598 27.5957 4.45585 27.4558C4.59571 27.3159 4.78541 27.2374 4.98321 27.2374L10.2038 27.2374Z" fill="#399AF4"/>
    <path d="M70.94 43.3226C71.0305 43.3203 71.1205 43.3357 71.2049 43.3679C71.2893 43.4001 71.3664 43.4485 71.4316 43.5103C71.4968 43.5721 71.5489 43.646 71.5849 43.7278C71.6208 43.8096 71.6399 43.8976 71.641 43.9867L71.641 67.9921C71.6397 68.1743 71.5652 68.3485 71.4339 68.4769C71.3026 68.6053 71.1251 68.6774 70.94 68.6774L31.152 68.6774C30.7683 68.6774 30.3582 68.3699 30.3582 67.9921L30.3582 41.7097L28 41.7097L28 67.9921C28 69.6506 29.4683 71 31.1528 71L70.9408 71C71.7511 70.999 72.5281 70.6819 73.1014 70.1182C73.6748 69.5544 73.9979 68.7899 74 67.9921L74 43.9867C73.9986 43.5927 73.9182 43.2028 73.7636 42.8394C73.609 42.476 73.3831 42.1461 73.0989 41.8687C72.8147 41.5913 72.4778 41.3718 72.1073 41.2228C71.7369 41.0737 71.3402 40.998 70.94 41L39.0085 41L39.0085 43.3226L70.94 43.3226Z" fill="#F58220"/>
    <path d="M51.5 66C53.5767 66 55.6068 65.4135 57.3335 64.3147C59.0602 63.2159 60.406 61.6541 61.2007 59.8268C61.9954 57.9996 62.2034 55.9889 61.7982 54.0491C61.3931 52.1093 60.3931 50.3275 58.9246 48.9289C57.4562 47.5304 55.5852 46.578 53.5484 46.1921C51.5116 45.8063 49.4004 46.0043 47.4818 46.7612C45.5632 47.5181 43.9233 48.7998 42.7696 50.4443C41.6158 52.0888 41 54.0222 41 56C41.0033 58.6512 42.1106 61.1929 44.079 63.0676C46.0474 64.9423 48.7162 65.9968 51.5 66ZM51.5 48.2333C53.1126 48.2333 54.6891 48.6888 56.0299 49.542C57.3708 50.3953 58.4158 51.6081 59.033 53.027C59.6501 54.446 59.8116 56.0073 59.497 57.5136C59.1823 59.02 58.4058 60.4036 57.2655 61.4896C56.1252 62.5756 54.6723 63.3152 53.0907 63.6148C51.509 63.9145 49.8696 63.7607 48.3797 63.173C46.8899 62.5852 45.6164 61.5899 44.7205 60.3129C43.8246 59.0359 43.3464 57.5345 43.3464 55.9987C43.349 53.94 44.2088 51.9662 45.7374 50.5105C47.2659 49.0547 49.3383 48.2358 51.5 48.2333Z" fill="#F58220"/>
    <path d="M56.1463 56.3229C56.3889 56.3229 56.5895 56.2543 56.7481 56.1171C56.916 55.98 57 55.8043 57 55.59C57 55.3757 56.916 55.1957 56.7481 55.05C56.5895 54.9129 56.3889 54.8443 56.1463 54.8443L55.5165 54.8443L55.5165 51.7843C55.5165 51.5614 55.4326 51.3729 55.2646 51.2186C55.106 51.0729 54.9054 51 54.6629 51C54.5322 51 54.4016 51.0171 54.271 51.0514C54.1497 51.0943 54.0611 51.15 54.0051 51.2186L50.7863 54.9729L48.869 54.9729L48.869 51.72C48.869 51.5143 48.7943 51.3429 48.645 51.2057C48.5051 51.0686 48.3185 51 48.0852 51C47.8613 51 47.6794 51.0686 47.5394 51.2057C47.3995 51.3429 47.3295 51.5143 47.3295 51.72L47.3295 54.8443L46.8537 54.8443C46.6111 54.8443 46.4105 54.9129 46.2519 55.05C46.084 55.1957 46 55.3757 46 55.59C46 55.8043 46.084 55.98 46.2519 56.1171C46.4105 56.2543 46.6111 56.3229 46.8537 56.3229L47.3295 56.3229L47.3295 59.2157C47.3295 59.4386 47.4088 59.6229 47.5674 59.7686C47.7354 59.9229 47.9406 60 48.1832 60C48.3232 60 48.4584 59.9743 48.5891 59.9229C48.729 59.8714 48.8316 59.8029 48.8969 59.7171L51.9059 56.1943L53.9911 56.1943L53.9911 59.28C53.9911 59.4857 54.0611 59.6571 54.201 59.7943C54.3503 59.9314 54.5369 60 54.7608 60C54.9847 60 55.1667 59.9314 55.3066 59.7943C55.4466 59.6571 55.5165 59.4857 55.5165 59.28L55.5165 56.3229L56.1463 56.3229ZM48.869 56.1943L49.7366 56.1943L48.869 57.21L48.869 56.1943ZM53.9911 54.9729L52.9415 54.9729L53.9911 53.7514L53.9911 54.9729Z" fill="#F58220"/>
    <path d="M34.9651 47.6524C35.4131 48.0797 35.9449 48.4186 36.5302 48.6498C37.1155 48.881 37.7428 49 38.3764 49C39.0099 49 39.6372 48.881 40.2225 48.6498C40.8078 48.4186 41.3396 48.0797 41.7876 47.6524L42.6152 46.8634C42.843 46.6462 42.9792 46.3568 42.9978 46.0501C43.0164 45.7435 42.9163 45.441 42.7163 45.2002L33.8142 34.4786C33.7074 34.349 33.5748 34.2407 33.4241 34.1601C33.2733 34.0794 33.1073 34.028 32.9356 34.0086C32.7639 33.9893 32.5899 34.0025 32.4236 34.0474C32.2573 34.0924 32.1019 34.1682 31.9664 34.2705C31.8308 34.3729 31.7178 34.4997 31.6338 34.6438C31.5498 34.7879 31.4964 34.9464 31.4768 35.1101C31.4572 35.2739 31.4716 35.4398 31.5194 35.5983C31.5671 35.7567 31.6472 35.9046 31.755 36.0335L39.931 45.8807C39.5188 46.2737 38.9598 46.4944 38.3769 46.4944C37.794 46.4944 37.235 46.2737 36.8228 45.8807L31.8576 41.1454C31.6296 40.9281 31.3258 40.7983 31.004 40.7807L29.9211 40.721C29.896 40.7195 29.8706 40.7189 29.8454 40.7189C28.9624 40.7235 28.0914 40.915 27.2954 41.2796C26.5165 41.6324 25.6557 41.7887 24.7954 41.7335C23.935 41.6783 23.1039 41.4134 22.3816 40.9642C22.1627 40.8376 21.9089 40.7764 21.6532 40.7886L19.3133 40.7886C18.965 40.7886 18.631 40.9206 18.3847 41.1555C18.1384 41.3903 18 41.7089 18 42.0411C18 42.3732 18.1384 42.6918 18.3847 42.9267C18.631 43.1616 18.965 43.2935 19.3133 43.2935L21.2769 43.2935C23.4362 44.3372 26.1327 44.6029 28.4126 43.5816C28.8481 43.3744 29.3251 43.2584 29.8115 43.2413L30.3537 43.2622L34.9651 47.6524Z" fill="#399AF4"/>
  </g>
  <defs>
    <clipPath id="clip0">
      <rect width="110" height="105" fill="white" transform="matrix(-1 0 0 1 110 0)"/>
    </clipPath>
  </defs>
</svg>
